<?xml version="1.0" encoding="UTF-8"?><svg id="Layer_2" xmlns="http://www.w3.org/2000/svg" viewBox="0 0 476.91 359.98"><defs><style>.cls-1{fill:#fff;}</style></defs><g id="Layer_1-2"><g><path class="cls-1" d="M363.86,0c-3.25-.01-5.62,1.14-7.87,3.42-37.66,37.95-75.37,75.85-113.06,113.76,.31,3.18,2.4,5.36,4.48,7.44,17.67,17.63,35.39,35.2,53.09,52.79,2.7-2.44,5.52-4.77,8.1-7.35,38.05-38.02,76.05-76.09,114.12-114.09,17.97-17.94,36.08-35.74,54.2-53.68-1.52-1.28-1.98-2.02-2.45-2.02C437.6,.16,400.73,.13,363.86,0Z"/><path class="cls-1" d="M275.23,204.64c-.31-.69-.74-1.33-1.33-1.83-.56-.47-1.2-.86-1.96-1.05-2.67-.68-5.39,.93-6.07,3.6-.42,1.64,.1,3.25,1.13,4.44,.48,.55,1.08,.98,1.75,1.3-2.65,2.66-5.29,5.24-7.95,7.94-1.05,1.07-2.05,2.12-3.09,3.19-.06-.72-.27-1.39-.6-2-.84-1.57-2.44-2.67-4.34-2.67-2.76,0-4.99,2.23-4.99,4.99,0,1.81,1.01,3.33,2.46,4.2,.7,.43,1.48,.72,2.35,.76-3.17,3.27-6.4,6.55-9.51,9.8,1.35,1.36,3.69,3.74,6.58,6.69,35.47,36.36,71.87,71.78,107.61,107.87,4.8,4.85,9.72,6.94,16.62,6.85,28.23-.36,56.47-.15,84.7-.14h17.5c-59.12-59.79-117.59-118.93-176.06-178.07-8.23,7.81-16.51,15.91-24.81,24.13Z"/><path class="cls-1" d="M287.54,178.48c.84,0,1.6-.26,2.3-.63,1.58-.84,2.69-2.45,2.69-4.36,0-2.76-2.23-4.99-4.99-4.99-1.92,0-3.54,1.12-4.38,2.72-.36,.69-.62,1.44-.62,2.27,0,2.76,2.23,4.99,4.99,4.99Z"/><path class="cls-1" d="M252.77,145.37c1.22,0,2.3-.49,3.17-1.22,1.09-.92,1.82-2.24,1.82-3.77,0-2.76-2.23-4.99-4.99-4.99-1.54,0-2.87,.74-3.79,1.84-.72,.86-1.2,1.93-1.2,3.15,0,2.76,2.23,4.99,4.99,4.99Z"/><path class="cls-1" d="M284.08,193.02c2.4-2.24,4.86-4.42,7.32-6.61-.91-1.17-2.27-1.96-3.87-1.96-2.76,0-4.99,2.23-4.99,4.99,0,1.41,.6,2.67,1.54,3.58Z"/><circle class="cls-1" cx="252.77" cy="156.33" r="4.99"/><path class="cls-1" d="M269.47,161.16c1.13,.29,2.25,.1,3.24-.35,1.34-.6,2.44-1.71,2.84-3.25,.68-2.67-.93-5.39-3.6-6.07-2.4-.61-4.76,.68-5.72,2.88-.11,.25-.28,.45-.35,.72-.68,2.67,.93,5.39,3.6,6.07Z"/><circle class="cls-1" cx="252.77" cy="173.49" r="4.99"/><path class="cls-1" d="M269.47,178.32c2.67,.68,5.39-.93,6.07-3.6,.68-2.67-.93-5.39-3.6-6.07-2.67-.68-5.39,.93-6.07,3.6-.68,2.67,.93,5.39,3.6,6.07Z"/><path class="cls-1" d="M252.77,194.43c2.76,0,4.99-2.23,4.99-4.99s-2.23-4.99-4.99-4.99-4.99,2.23-4.99,4.99,2.23,4.99,4.99,4.99Z"/><path class="cls-1" d="M269.47,194.28c2.67,.68,5.39-.93,6.07-3.6,.68-2.67-.93-5.39-3.6-6.07-2.67-.68-5.39,.93-6.07,3.6-.68,2.67,.93,5.39,3.6,6.07Z"/><circle class="cls-1" cx="252.77" cy="206.6" r="4.99"/><path class="cls-1" d="M218.01,102.27c-1.2,0-2.27,.48-3.13,1.19-1.11,.92-1.86,2.25-1.86,3.8,0,2.76,2.23,4.99,4.99,4.99,1.55,0,2.88-.75,3.8-1.86,.71-.86,1.19-1.93,1.19-3.13,0-2.76-2.23-4.99-4.99-4.99Z"/><path class="cls-1" d="M234.71,145.21c2.67,.68,5.39-.93,6.07-3.6,.68-2.67-.93-5.39-3.6-6.07-2.67-.68-5.39,.93-6.07,3.6-.68,2.67,.93,5.39,3.6,6.07Z"/><circle class="cls-1" cx="218.01" cy="156.33" r="4.99"/><path class="cls-1" d="M234.71,161.16c2.67,.68,5.39-.93,6.07-3.6,.68-2.67-.93-5.39-3.6-6.07-2.67-.68-5.39,.93-6.07,3.6-.68,2.67,.93,5.39,3.6,6.07Z"/><circle class="cls-1" cx="218.01" cy="173.49" r="4.99"/><path class="cls-1" d="M234.71,178.32c2.67,.68,5.39-.93,6.07-3.6,.68-2.67-.93-5.39-3.6-6.07-2.67-.68-5.39,.93-6.07,3.6-.68,2.67,.93,5.39,3.6,6.07Z"/><path class="cls-1" d="M183.24,69.16c-.78,0-1.49,.21-2.14,.53-1.67,.81-2.85,2.48-2.85,4.46,0,2.76,2.23,4.99,4.99,4.99,1.98,0,3.66-1.18,4.46-2.85,.32-.65,.53-1.37,.53-2.14,0-2.76-2.23-4.99-4.99-4.99Z"/><path class="cls-1" d="M199.94,178.32c2.67,.68,5.39-.93,6.07-3.6s-.93-5.39-3.6-6.07c-2.67-.68-5.39,.93-6.07,3.6-.68,2.67,.93,5.39,3.6,6.07Z"/><path class="cls-1" d="M148.47,36.05c-.26,0-.49,.11-.74,.15-2.39,.37-4.25,2.35-4.25,4.84,0,2.76,2.23,4.99,4.99,4.99,2.49,0,4.46-1.85,4.84-4.23,.04-.26,.15-.49,.15-.76,0-2.76-2.23-4.99-4.99-4.99Z"/><path class="cls-1" d="M129.66,127.69c.26,.11,.47,.29,.75,.36,2.67,.68,5.39-.93,6.07-3.6,.68-2.67-.93-5.39-3.6-6.07-2.67-.68-5.39,.93-6.07,3.6-.29,1.12-.1,2.21,.33,3.2,.49,1.12,1.36,1.99,2.51,2.51Z"/><path class="cls-1" d="M218.01,118.23c-2.76,0-4.99,2.23-4.99,4.99s2.23,4.99,4.99,4.99,4.99-2.23,4.99-4.99-2.23-4.99-4.99-4.99Z"/><path class="cls-1" d="M234.71,128.05c.54,.14,1.07,.12,1.59,.08,1.22-.09,2.32-.63,3.17-1.49,.59-.61,1.09-1.31,1.31-2.19,.68-2.67-.93-5.39-3.6-6.07-2.11-.54-4.22,.39-5.36,2.11-.3,.45-.57,.93-.72,1.49-.68,2.67,.93,5.39,3.6,6.07Z"/><path class="cls-1" d="M218.01,135.38c-2.76,0-4.99,2.23-4.99,4.99s2.23,4.99,4.99,4.99c.48,0,.91-.15,1.34-.27,1.64-.47,2.9-1.71,3.37-3.35,.13-.44,.28-.88,.28-1.37,0-2.76-2.23-4.99-4.99-4.99Z"/><path class="cls-1" d="M183.24,85.12c-2.76,0-4.99,2.23-4.99,4.99s2.23,4.99,4.99,4.99,4.99-2.23,4.99-4.99-2.23-4.99-4.99-4.99Z"/><path class="cls-1" d="M199.94,94.94c1.85,.47,3.68-.2,4.89-1.52,.53-.58,.98-1.25,1.19-2.07,.68-2.67-.93-5.39-3.6-6.07-1.68-.43-3.33,.12-4.53,1.21-.7,.63-1.29,1.41-1.54,2.39-.68,2.67,.93,5.39,3.6,6.07Z"/><path class="cls-1" d="M183.24,102.27c-2.76,0-4.99,2.23-4.99,4.99s2.23,4.99,4.99,4.99,4.99-2.23,4.99-4.99-2.23-4.99-4.99-4.99Z"/><path class="cls-1" d="M199.94,112.1c2.67,.68,5.39-.93,6.07-3.6,.68-2.67-.93-5.39-3.6-6.07-2.67-.68-5.39,.93-6.07,3.6-.68,2.67,.93,5.39,3.6,6.07Z"/><path class="cls-1" d="M183.24,118.23c-2.76,0-4.99,2.23-4.99,4.99s2.23,4.99,4.99,4.99,4.99-2.23,4.99-4.99-2.23-4.99-4.99-4.99Z"/><path class="cls-1" d="M199.94,128.05c2.67,.68,5.39-.93,6.07-3.6,.68-2.67-.93-5.39-3.6-6.07-2.67-.68-5.39,.93-6.07,3.6-.68,2.67,.93,5.39,3.6,6.07Z"/><path class="cls-1" d="M183.24,135.38c-2.76,0-4.99,2.23-4.99,4.99s2.23,4.99,4.99,4.99,4.99-2.23,4.99-4.99-2.23-4.99-4.99-4.99Z"/><path class="cls-1" d="M199.94,145.21c2.67,.68,5.39-.93,6.07-3.6,.68-2.67-.93-5.39-3.6-6.07-2.67-.68-5.39,.93-6.07,3.6-.68,2.67,.93,5.39,3.6,6.07Z"/><path class="cls-1" d="M183.24,151.34c-2.76,0-4.99,2.23-4.99,4.99s2.23,4.99,4.99,4.99,4.99-2.24,4.99-4.99-2.23-4.99-4.99-4.99Z"/><path class="cls-1" d="M199.94,161.16c1.39,.35,2.77,.07,3.89-.64h0c.48-.48,.96-.96,1.45-1.44,.31-.46,.59-.95,.73-1.52,.68-2.67-.93-5.39-3.6-6.07-2.67-.68-5.39,.93-6.07,3.6-.68,2.67,.93,5.39,3.6,6.07Z"/><path class="cls-1" d="M183.24,168.5c-2.76,0-4.99,2.23-4.99,4.99s2.23,4.99,4.99,4.99,4.99-2.23,4.99-4.99-2.23-4.99-4.99-4.99Z"/><path class="cls-1" d="M148.47,52.01c-2.76,0-4.99,2.23-4.99,4.99s2.23,4.99,4.99,4.99,4.99-2.24,4.99-4.99-2.23-4.99-4.99-4.99Z"/><path class="cls-1" d="M165.17,61.84c2.27,.58,4.5-.56,5.56-2.54,.18-.35,.41-.66,.51-1.06,.68-2.67-.93-5.39-3.6-6.07-1.25-.32-2.5-.1-3.56,.46-1.2,.64-2.15,1.72-2.51,3.14-.68,2.67,.93,5.39,3.6,6.07Z"/><path class="cls-1" d="M148.47,69.16c-2.76,0-4.99,2.24-4.99,4.99s2.23,4.99,4.99,4.99,4.99-2.24,4.99-4.99-2.23-4.99-4.99-4.99Z"/><path class="cls-1" d="M165.17,78.99c2.67,.68,5.39-.93,6.07-3.6,.68-2.67-.93-5.39-3.6-6.07-2.67-.68-5.39,.93-6.07,3.6-.68,2.67,.93,5.39,3.6,6.07Z"/><path class="cls-1" d="M148.47,85.12c-2.76,0-4.99,2.23-4.99,4.99s2.23,4.99,4.99,4.99,4.99-2.23,4.99-4.99-2.23-4.99-4.99-4.99Z"/><path class="cls-1" d="M165.17,94.94c2.67,.68,5.39-.93,6.07-3.6,.68-2.67-.93-5.39-3.6-6.07-2.67-.68-5.39,.93-6.07,3.6-.68,2.67,.93,5.39,3.6,6.07Z"/><path class="cls-1" d="M148.47,102.27c-2.76,0-4.99,2.23-4.99,4.99s2.23,4.99,4.99,4.99,4.99-2.23,4.99-4.99-2.23-4.99-4.99-4.99Z"/><path class="cls-1" d="M165.17,112.1c2.67,.68,5.39-.93,6.07-3.6,.68-2.67-.93-5.39-3.6-6.07-2.67-.68-5.39,.93-6.07,3.6-.68,2.67,.93,5.39,3.6,6.07Z"/><path class="cls-1" d="M148.47,118.23c-2.76,0-4.99,2.23-4.99,4.99s2.23,4.99,4.99,4.99,4.99-2.23,4.99-4.99-2.23-4.99-4.99-4.99Z"/><path class="cls-1" d="M165.17,128.05c2.67,.68,5.39-.93,6.07-3.6,.68-2.67-.93-5.39-3.6-6.07-2.67-.68-5.39,.93-6.07,3.6-.68,2.67,.93,5.39,3.6,6.07Z"/><path class="cls-1" d="M148.47,135.38c-2.76,0-4.99,2.23-4.99,4.99,0,.51,.15,.97,.29,1.43,.48,1.59,1.69,2.8,3.28,3.28,.46,.14,.92,.29,1.43,.29,2.76,0,4.99-2.23,4.99-4.99s-2.23-4.99-4.99-4.99Z"/><path class="cls-1" d="M165.17,145.21c2.67,.68,5.39-.93,6.07-3.6,.68-2.67-.93-5.39-3.6-6.07-2.67-.68-5.39,.93-6.07,3.6-.68,2.67,.93,5.39,3.6,6.07Z"/><path class="cls-1" d="M165.17,161.16c2.67,.68,5.39-.93,6.07-3.6,.68-2.67-.93-5.39-3.6-6.07-2.67-.68-5.39,.93-6.07,3.6-.68,2.67,.93,5.39,3.6,6.07Z"/><path class="cls-1" d="M113.71,18.9c-2.76,0-4.99,2.23-4.99,4.99s2.23,4.99,4.99,4.99,4.99-2.23,4.99-4.99-2.23-4.99-4.99-4.99Z"/><path class="cls-1" d="M130.41,28.72c2.67,.68,5.39-.93,6.07-3.6,.02-.07,0-.14,.01-.21,.55-2.6-1.01-5.2-3.61-5.86-.76-.2-1.52-.16-2.24,0-1.81,.38-3.35,1.7-3.83,3.61-.68,2.67,.93,5.39,3.6,6.07Z"/><path class="cls-1" d="M113.71,36.05c-2.76,0-4.99,2.23-4.99,4.99s2.23,4.99,4.99,4.99,4.99-2.23,4.99-4.99-2.23-4.99-4.99-4.99Z"/><path class="cls-1" d="M130.41,45.88c2.67,.68,5.39-.93,6.07-3.6,.68-2.67-.93-5.39-3.6-6.07-2.67-.68-5.39,.93-6.07,3.6-.68,2.67,.93,5.39,3.6,6.07Z"/><path class="cls-1" d="M113.71,52.01c-2.76,0-4.99,2.23-4.99,4.99s2.23,4.99,4.99,4.99,4.99-2.24,4.99-4.99-2.23-4.99-4.99-4.99Z"/><path class="cls-1" d="M130.41,61.84c2.67,.68,5.39-.93,6.07-3.6,.68-2.67-.93-5.39-3.6-6.07-2.67-.68-5.39,.93-6.07,3.6-.68,2.67,.93,5.39,3.6,6.07Z"/><circle class="cls-1" cx="113.71" cy="74.16" r="4.99"/><path class="cls-1" d="M130.41,78.99c2.67,.68,5.39-.93,6.07-3.6,.68-2.67-.93-5.39-3.6-6.07-2.67-.68-5.39,.93-6.07,3.6-.68,2.67,.93,5.39,3.6,6.07Z"/><path class="cls-1" d="M113.71,85.12c-2.76,0-4.99,2.23-4.99,4.99s2.23,4.99,4.99,4.99,4.99-2.23,4.99-4.99-2.23-4.99-4.99-4.99Z"/><path class="cls-1" d="M130.41,94.94c2.67,.68,5.39-.93,6.07-3.6,.68-2.67-.93-5.39-3.6-6.07-2.67-.68-5.39,.93-6.07,3.6-.68,2.67,.93,5.39,3.6,6.07Z"/><path class="cls-1" d="M113.71,102.27c-2.61,0-4.68,2.02-4.91,4.57-.01,.15-.09,.27-.09,.42,0,2.76,2.23,4.99,4.99,4.99,.15,0,.28-.07,.42-.09,2.55-.23,4.57-2.3,4.57-4.91,0-2.76-2.23-4.99-4.99-4.99Z"/><path class="cls-1" d="M130.41,112.1c2.67,.68,5.39-.93,6.07-3.6,.68-2.67-.93-5.39-3.6-6.07-2.67-.68-5.39,.93-6.07,3.6-.68,2.67,.93,5.39,3.6,6.07Z"/><path class="cls-1" d="M78.94,18.9c-2.76,0-4.99,2.23-4.99,4.99s2.23,4.99,4.99,4.99,4.99-2.23,4.99-4.99-2.23-4.99-4.99-4.99Z"/><path class="cls-1" d="M92.05,22.65c-.68,2.67,.93,5.39,3.6,6.07,2.67,.68,5.39-.93,6.07-3.6,.68-2.67-.93-5.39-3.6-6.07-2.67-.68-5.39,.93-6.07,3.6Z"/><path class="cls-1" d="M78.94,36.05c-2.76,0-4.99,2.23-4.99,4.99s2.23,4.99,4.99,4.99,4.99-2.23,4.99-4.99-2.23-4.99-4.99-4.99Z"/><path class="cls-1" d="M98.12,36.21c-2.67-.68-5.39,.93-6.07,3.6-.68,2.67,.93,5.39,3.6,6.07,2.67,.68,5.39-.93,6.07-3.6,.68-2.67-.93-5.39-3.6-6.07Z"/><path class="cls-1" d="M78.94,52.01c-2.76,0-4.99,2.23-4.99,4.99s2.23,4.99,4.99,4.99,4.99-2.24,4.99-4.99-2.23-4.99-4.99-4.99Z"/><path class="cls-1" d="M98.12,52.16c-2.67-.68-5.39,.93-6.07,3.6-.68,2.67,.93,5.39,3.6,6.07,2.67,.68,5.39-.93,6.07-3.6,.68-2.67-.93-5.39-3.6-6.07Z"/><path class="cls-1" d="M78.94,69.16c-2.12,0-3.91,1.33-4.63,3.2-.22,.56-.36,1.16-.36,1.79,0,2.76,2.23,4.99,4.99,4.99,.64,0,1.24-.14,1.8-.36,1.86-.72,3.2-2.51,3.2-4.63,0-2.76-2.23-4.99-4.99-4.99Z"/><path class="cls-1" d="M98.12,69.32c-2.67-.68-5.39,.93-6.07,3.6-.68,2.67,.93,5.39,3.6,6.07,2.67,.68,5.39-.93,6.07-3.6,.68-2.67-.93-5.39-3.6-6.07Z"/><path class="cls-1" d="M98.12,85.27c-2.67-.68-5.39,.93-6.07,3.6-.1,.39-.05,.77-.06,1.16-.03,2.25,1.38,4.33,3.66,4.91,.45,.11,.89,.08,1.33,.07,2.19-.04,4.18-1.44,4.75-3.67,.68-2.67-.93-5.39-3.6-6.07Z"/><path class="cls-1" d="M44.18,18.9c-2.76,0-4.99,2.23-4.99,4.99s2.23,4.99,4.99,4.99,4.99-2.23,4.99-4.99-2.23-4.99-4.99-4.99Z"/><path class="cls-1" d="M57.28,22.65c-.68,2.67,.93,5.39,3.6,6.07,2.67,.68,5.39-.93,6.07-3.6,.68-2.67-.93-5.39-3.6-6.07-2.67-.68-5.39,.93-6.07,3.6Z"/><path class="cls-1" d="M44.18,36.05c-1.74,0-3.19,.94-4.09,2.29-.52,.79-.9,1.68-.9,2.7,0,2.76,2.23,4.99,4.99,4.99,1.03,0,1.94-.39,2.74-.93,1.33-.9,2.26-2.34,2.26-4.07,0-2.76-2.23-4.99-4.99-4.99Z"/><path class="cls-1" d="M63.35,36.21c-2.67-.68-5.39,.93-6.07,3.6-.68,2.67,.93,5.39,3.6,6.07,2.67,.68,5.39-.93,6.07-3.6,.68-2.67-.93-5.39-3.6-6.07Z"/><path class="cls-1" d="M63.35,52.16c-2.58-.66-5.16,.84-5.95,3.35-.03,.09-.1,.16-.12,.25-.68,2.67,.93,5.39,3.6,6.07,.95,.24,1.87,.11,2.73-.17,1.58-.51,2.9-1.71,3.34-3.43,.68-2.67-.93-5.39-3.6-6.07Z"/><path class="cls-1" d="M23.11,21.41c-.23,.39-.48,.78-.6,1.24-.68,2.67,.93,5.39,3.6,6.07,1.33,.34,2.68,.11,3.77-.54,1.1-.65,1.96-1.72,2.3-3.06,.68-2.67-.93-5.39-3.6-6.07-2.21-.56-4.37,.48-5.47,2.35Z"/><path class="cls-1" d="M7.53,10.26c1.1-.65,1.96-1.72,2.3-3.06,.68-2.67-.93-5.39-3.6-6.07C4.03,.56,1.86,1.61,.76,3.48c-.23,.39-.48,.78-.6,1.24-.68,2.67,.93,5.39,3.6,6.07,1.33,.34,2.68,.11,3.77-.54Z"/><path class="cls-1" d="M96.34,5.96c0-2.76-2.23-4.99-4.99-4.99s-4.99,2.23-4.99,4.99,2.23,4.99,4.99,4.99,4.99-2.23,4.99-4.99Z"/><path class="cls-1" d="M114.13,7.2c.02-.07,0-.14,.01-.21,.55-2.6-1.01-5.2-3.61-5.86-.76-.2-1.52-.16-2.24,0-1.81,.38-3.35,1.7-3.83,3.61-.68,2.67,.93,5.39,3.6,6.07,2.67,.68,5.39-.93,6.07-3.6Z"/><path class="cls-1" d="M61.58,5.96c0-2.76-2.23-4.99-4.99-4.99s-4.99,2.23-4.99,4.99,2.23,4.99,4.99,4.99,4.99-2.23,4.99-4.99Z"/><path class="cls-1" d="M79.36,7.2c.68-2.67-.93-5.39-3.6-6.07-2.67-.68-5.39,.93-6.07,3.6-.68,2.67,.93,5.39,3.6,6.07,2.67,.68,5.39-.93,6.07-3.6Z"/><path class="cls-1" d="M26.81,5.96c0-2.76-2.23-4.99-4.99-4.99s-4.99,2.23-4.99,4.99,2.23,4.99,4.99,4.99,4.99-2.23,4.99-4.99Z"/><path class="cls-1" d="M44.59,7.2c.68-2.67-.93-5.39-3.6-6.07-2.67-.68-5.39,.93-6.07,3.6-.68,2.67,.93,5.39,3.6,6.07,2.67,.68,5.39-.93,6.07-3.6Z"/><path class="cls-1" d="M218.01,184.45c-2.76,0-4.99,2.23-4.99,4.99s2.23,4.99,4.99,4.99,4.99-2.23,4.99-4.99-2.23-4.99-4.99-4.99Z"/><path class="cls-1" d="M234.71,194.28c2.67,.68,5.39-.93,6.07-3.6,.68-2.67-.93-5.39-3.6-6.07-2.67-.68-5.39,.93-6.07,3.6-.68,2.67,.93,5.39,3.6,6.07Z"/><circle class="cls-1" cx="218.01" cy="206.6" r="4.99"/><path class="cls-1" d="M234.71,211.43c2.67,.68,5.39-.93,6.07-3.6,.68-2.67-.93-5.39-3.6-6.07-2.67-.68-5.39,.93-6.07,3.6-.68,2.67,.93,5.39,3.6,6.07Z"/><path class="cls-1" d="M218.73,217.7c-.25-.04-.47-.15-.72-.15-2.76,0-4.99,2.23-4.99,4.99s2.23,4.99,4.99,4.99,4.99-2.24,4.99-4.99c0-.16-.08-.3-.09-.46-.22-2.28-1.93-4.05-4.17-4.39Z"/><path class="cls-1" d="M234.71,227.39c2.67,.68,5.39-.93,6.07-3.6s-.93-5.39-3.6-6.07c-2.67-.68-5.39,.93-6.07,3.6-.68,2.67,.93,5.39,3.6,6.07Z"/><path class="cls-1" d="M237.18,234.87c-.43-.11-.86-.07-1.29-.07-2.2,.02-4.21,1.43-4.79,3.66-.5,1.94,.24,3.89,1.7,5.08,.55,.45,1.17,.81,1.9,.99,2.67,.68,5.39-.93,6.07-3.6,.27-1.06,.1-2.09-.28-3.04-.57-1.44-1.71-2.62-3.32-3.04Z"/><path class="cls-1" d="M222.95,255.43c-.02-.52-.13-1.02-.3-1.48-.7-1.91-2.5-3.28-4.65-3.28-2.76,0-4.99,2.23-4.99,4.99,0,2.14,1.36,3.93,3.26,4.64,.47,.18,.98,.28,1.51,.3,.01,0,.02,0,.03,0,.07,0,.13,.04,.2,.04,2.76,0,4.99-2.23,4.99-4.99,0-.06-.03-.12-.04-.18,0-.02,0-.03,0-.05Z"/><path class="cls-1" d="M185.05,184.81c-.56-.22-1.16-.36-1.79-.36,0,0-.01,0-.02,0-2.76,0-4.99,2.23-4.99,4.99,0,.02,.01,.04,.01,.06,.04,2.72,2.24,4.93,4.98,4.93s4.99-2.23,4.99-4.99c0-.88-.29-1.66-.69-2.38-.56-1.01-1.41-1.82-2.49-2.24Z"/><path class="cls-1" d="M199.94,194.28c2.67,.68,5.39-.93,6.07-3.6,.68-2.67-.93-5.39-3.6-6.07-2.67-.68-5.39,.93-6.07,3.6-.68,2.67,.93,5.39,3.6,6.07Z"/><path class="cls-1" d="M78.94,283.78c-2.76,0-4.99,2.23-4.99,4.99,0,1.69,.9,3.12,2.19,4.02,.81,.57,1.74,.97,2.8,.97,2.76,0,4.99-2.23,4.99-4.99,0-1.08-.42-2.03-1-2.85-.91-1.26-2.31-2.14-3.99-2.14Z"/><path class="cls-1" d="M63.35,301.09c-2.67-.68-5.39,.93-6.07,3.6-.52,2.04,.3,4.09,1.9,5.26,.5,.36,1.06,.66,1.7,.82,2.67,.68,5.39-.93,6.07-3.6,.39-1.52-.02-3.01-.89-4.18-.66-.88-1.55-1.6-2.71-1.9Z"/><path class="cls-1" d="M44.18,316.89c-2.76,0-4.99,2.23-4.99,4.99,0,2.24,1.51,4.07,3.55,4.7,.47,.14,.93,.29,1.44,.29,2.76,0,4.99-2.24,4.99-4.99,0-.53-.15-1.02-.3-1.5-.65-2.01-2.46-3.49-4.69-3.49Z"/><path class="cls-1" d="M28.59,334.2c-2.67-.68-5.39,.93-6.07,3.6-.65,2.55,.82,5.09,3.28,5.92,.12,.04,.2,.12,.32,.16,2.67,.68,5.39-.93,6.07-3.6,.25-.98,.11-1.94-.2-2.83-.53-1.53-1.71-2.82-3.4-3.25Z"/><path class="cls-1" d="M9.41,350c-2.76,0-4.99,2.23-4.99,4.99s2.23,4.99,4.99,4.99c2.42,0,4.34-1.75,4.8-4.03-.13-.06-.24-.08-.37-.15,.17-.17,.34-.34,.5-.51,0-.11,.06-.2,.06-.3,0-2.76-2.23-4.99-4.99-4.99Z"/><circle class="cls-1" cx="218.01" cy="239.71" r="4.99"/><path class="cls-1" d="M183.24,201.61c-2.76,0-4.99,2.23-4.99,4.99s2.23,4.99,4.99,4.99,4.99-2.23,4.99-4.99-2.23-4.99-4.99-4.99Z"/><path class="cls-1" d="M204.07,202.56c-.49-.35-1.03-.64-1.65-.8-2.67-.68-5.39,.93-6.07,3.6-.68,2.67,.93,5.39,3.6,6.07,2.67,.68,5.39-.93,6.07-3.6,.43-1.67-.11-3.3-1.18-4.5-.26-.26-.51-.52-.76-.77Z"/><path class="cls-1" d="M183.24,217.56c-2.76,0-4.99,2.23-4.99,4.99s2.23,4.99,4.99,4.99,4.99-2.24,4.99-4.99-2.23-4.99-4.99-4.99Z"/><path class="cls-1" d="M202.42,217.71c-2.67-.68-5.39,.93-6.07,3.6-.68,2.67,.93,5.39,3.6,6.07,2.67,.68,5.39-.93,6.07-3.6,.68-2.67-.93-5.39-3.6-6.07Z"/><path class="cls-1" d="M183.24,234.72c-2.76,0-4.99,2.24-4.99,4.99s2.23,4.99,4.99,4.99,4.99-2.24,4.99-4.99-2.23-4.99-4.99-4.99Z"/><path class="cls-1" d="M202.42,234.87c-2.67-.68-5.39,.93-6.07,3.6-.68,2.67,.93,5.39,3.6,6.07,2.67,.68,5.39-.93,6.07-3.6,.68-2.67-.93-5.39-3.6-6.07Z"/><path class="cls-1" d="M183.24,250.67c-2.76,0-4.99,2.23-4.99,4.99s2.23,4.99,4.99,4.99,4.99-2.23,4.99-4.99-2.23-4.99-4.99-4.99Z"/><path class="cls-1" d="M202.42,250.82c-2.67-.68-5.39,.93-6.07,3.6-.68,2.67,.93,5.39,3.6,6.07,2.67,.68,5.39-.93,6.07-3.6,.68-2.67-.93-5.39-3.6-6.07Z"/><path class="cls-1" d="M183.24,267.83c-2.76,0-4.99,2.23-4.99,4.99s2.23,4.99,4.99,4.99,4.99-2.23,4.99-4.99-2.23-4.99-4.99-4.99Z"/><path class="cls-1" d="M202.42,267.98c-2.67-.68-5.39,.93-6.07,3.6-.61,2.39,.67,4.75,2.86,5.72,.25,.11,.46,.29,.74,.36,2.67,.68,5.39-.93,6.07-3.6,.29-1.12,.1-2.22-.34-3.21-.6-1.36-1.71-2.47-3.26-2.87Z"/><path class="cls-1" d="M183.24,283.78c-2.76,0-4.99,2.23-4.99,4.99,0,2.58,1.99,4.64,4.51,4.89,.17,.02,.31,.1,.49,.1,2.76,0,4.99-2.23,4.99-4.99,0-.17-.08-.3-.09-.46-.25-2.53-2.31-4.53-4.9-4.53Z"/><path class="cls-1" d="M167.65,201.76c-.48-.12-.96-.09-1.43-.07-2.15,.09-4.08,1.48-4.64,3.67-.09,.36-.04,.72-.06,1.08-.07,2.29,1.35,4.41,3.65,5,2.67,.68,5.39-.93,6.07-3.6,.68-2.67-.93-5.39-3.6-6.07Z"/><path class="cls-1" d="M150.18,217.9c-.54-.2-1.1-.34-1.71-.34-2.76,0-4.99,2.23-4.99,4.99,0,.63,.15,1.22,.36,1.77,.72,1.88,2.51,3.22,4.63,3.22,2.76,0,4.99-2.24,4.99-4.99,0-2.15-1.38-3.94-3.28-4.65Z"/><path class="cls-1" d="M165.17,227.39c2.67,.68,5.39-.93,6.07-3.6,.68-2.67-.93-5.39-3.6-6.07-2.67-.68-5.39,.93-6.07,3.6-.68,2.67,.93,5.39,3.6,6.07Z"/><path class="cls-1" d="M148.47,234.72c-2.76,0-4.99,2.24-4.99,4.99s2.23,4.99,4.99,4.99,4.99-2.24,4.99-4.99-2.23-4.99-4.99-4.99Z"/><path class="cls-1" d="M165.17,244.54c2.67,.68,5.39-.93,6.07-3.6,.68-2.67-.93-5.39-3.6-6.07-2.67-.68-5.39,.93-6.07,3.6-.68,2.67,.93,5.39,3.6,6.07Z"/><path class="cls-1" d="M148.47,250.67c-2.76,0-4.99,2.23-4.99,4.99s2.23,4.99,4.99,4.99,4.99-2.23,4.99-4.99-2.23-4.99-4.99-4.99Z"/><path class="cls-1" d="M165.17,260.5c2.67,.68,5.39-.93,6.07-3.6,.68-2.67-.93-5.39-3.6-6.07-2.67-.68-5.39,.93-6.07,3.6-.68,2.67,.93,5.39,3.6,6.07Z"/><path class="cls-1" d="M148.47,267.83c-2.76,0-4.99,2.23-4.99,4.99s2.23,4.99,4.99,4.99,4.99-2.23,4.99-4.99-2.23-4.99-4.99-4.99Z"/><path class="cls-1" d="M165.17,277.65c2.67,.68,5.39-.93,6.07-3.6,.68-2.67-.93-5.39-3.6-6.07-2.67-.68-5.39,.93-6.07,3.6-.68,2.67,.93,5.39,3.6,6.07Z"/><path class="cls-1" d="M148.47,283.78c-2.76,0-4.99,2.23-4.99,4.99s2.23,4.99,4.99,4.99,4.99-2.23,4.99-4.99-2.23-4.99-4.99-4.99Z"/><path class="cls-1" d="M165.17,293.61c2.67,.68,5.39-.93,6.07-3.6,.68-2.67-.93-5.39-3.6-6.07-2.67-.68-5.39,.93-6.07,3.6-.68,2.67,.93,5.39,3.6,6.07Z"/><path class="cls-1" d="M148.47,300.94c-2.76,0-4.99,2.23-4.99,4.99s2.23,4.99,4.99,4.99,4.99-2.23,4.99-4.99-2.23-4.99-4.99-4.99Z"/><path class="cls-1" d="M167.65,301.09c-2.67-.68-5.39,.93-6.07,3.6-.68,2.67,.93,5.39,3.6,6.07,.16,.04,.31,0,.46,.02,2.51,.4,4.97-1.11,5.61-3.62,.18-.7,.18-1.4,.07-2.07-.32-1.88-1.7-3.5-3.67-4Z"/><path class="cls-1" d="M148.47,316.89c-2.76,0-4.99,2.23-4.99,4.99s2.23,4.99,4.99,4.99c.49,0,.94-.15,1.39-.28,1.62-.48,2.85-1.71,3.33-3.33,.13-.45,.28-.89,.28-1.38,0-2.76-2.23-4.99-4.99-4.99Z"/><path class="cls-1" d="M133.24,235.04c-.13-.04-.22-.14-.35-.17-2.67-.68-5.39,.93-6.07,3.6-.25,.99-.11,1.96,.21,2.86,.54,1.52,1.71,2.78,3.39,3.21,2.67,.68,5.39-.93,6.07-3.6,.65-2.54-.81-5.06-3.24-5.9Z"/><path class="cls-1" d="M116.7,251.77c-.84-.65-1.85-1.1-2.99-1.1-2.76,0-4.99,2.23-4.99,4.99,0,1.16,.46,2.19,1.13,3.04,.91,1.16,2.27,1.95,3.86,1.95,2.76,0,4.99-2.23,4.99-4.99,0-1.61-.81-2.98-2-3.89Z"/><path class="cls-1" d="M132.88,250.82c-2.67-.68-5.39,.93-6.07,3.6-.68,2.67,.93,5.39,3.6,6.07,2.67,.68,5.39-.93,6.07-3.6,.68-2.67-.93-5.39-3.6-6.07Z"/><circle class="cls-1" cx="113.71" cy="272.82" r="4.99"/><path class="cls-1" d="M132.88,267.98c-2.67-.68-5.39,.93-6.07,3.6-.68,2.67,.93,5.39,3.6,6.07,2.67,.68,5.39-.93,6.07-3.6,.68-2.67-.93-5.39-3.6-6.07Z"/><path class="cls-1" d="M113.71,283.78c-2.76,0-4.99,2.23-4.99,4.99s2.23,4.99,4.99,4.99,4.99-2.23,4.99-4.99-2.23-4.99-4.99-4.99Z"/><path class="cls-1" d="M132.88,283.93c-2.67-.68-5.39,.93-6.07,3.6-.68,2.67,.93,5.39,3.6,6.07,2.67,.68,5.39-.93,6.07-3.6,.68-2.67-.93-5.39-3.6-6.07Z"/><circle class="cls-1" cx="113.71" cy="305.93" r="4.99"/><path class="cls-1" d="M132.88,301.09c-2.67-.68-5.39,.93-6.07,3.6-.68,2.67,.93,5.39,3.6,6.07,2.67,.68,5.39-.93,6.07-3.6,.68-2.67-.93-5.39-3.6-6.07Z"/><path class="cls-1" d="M113.71,316.89c-2.76,0-4.99,2.23-4.99,4.99s2.23,4.99,4.99,4.99,4.99-2.24,4.99-4.99-2.23-4.99-4.99-4.99Z"/><path class="cls-1" d="M132.88,317.04c-2.67-.68-5.39,.93-6.07,3.6-.68,2.67,.93,5.39,3.6,6.07,2.67,.68,5.39-.93,6.07-3.6,.68-2.67-.93-5.39-3.6-6.07Z"/><circle class="cls-1" cx="113.71" cy="339.04" r="4.99"/><path class="cls-1" d="M132.88,334.2c-2.67-.68-5.39,.93-6.07,3.6-.68,2.67,.93,5.39,3.6,6.07,.74,.19,1.47,.17,2.17,.03,1.84-.36,3.41-1.7,3.9-3.63,.03-.1,0-.19,.02-.29,.5-2.57-1.04-5.12-3.61-5.78Z"/><path class="cls-1" d="M113.71,350c-2.76,0-4.99,2.23-4.99,4.99,0,.72,.16,1.39,.44,2.01,.78,1.75,2.52,2.98,4.55,2.98,2.61,0,4.7-2.03,4.91-4.59,.01-.14,.08-.26,.08-.4,0-2.76-2.23-4.99-4.99-4.99Z"/><path class="cls-1" d="M99.84,268.82c-.5-.37-1.08-.67-1.73-.83-2.67-.68-5.39,.93-6.07,3.6-.39,1.53,.03,3.03,.91,4.2,.66,.87,1.54,1.58,2.68,1.87,2.67,.68,5.39-.93,6.07-3.6,.52-2.02-.29-4.07-1.87-5.24Z"/><path class="cls-1" d="M98.12,283.93c-2.67-.68-5.39,.93-6.07,3.6-.68,2.67,.93,5.39,3.6,6.07,2.67,.68,5.39-.93,6.07-3.6,.68-2.67-.93-5.39-3.6-6.07Z"/><path class="cls-1" d="M78.94,300.94c-2.76,0-4.99,2.23-4.99,4.99s2.23,4.99,4.99,4.99,4.99-2.23,4.99-4.99-2.23-4.99-4.99-4.99Z"/><path class="cls-1" d="M98.12,301.09c-2.67-.68-5.39,.93-6.07,3.6-.68,2.67,.93,5.39,3.6,6.07,2.67,.68,5.39-.93,6.07-3.6,.68-2.67-.93-5.39-3.6-6.07Z"/><path class="cls-1" d="M78.94,316.89c-2.76,0-4.99,2.23-4.99,4.99s2.23,4.99,4.99,4.99,4.99-2.24,4.99-4.99-2.23-4.99-4.99-4.99Z"/><path class="cls-1" d="M98.12,317.04c-2.67-.68-5.39,.93-6.07,3.6-.68,2.67,.93,5.39,3.6,6.07,2.67,.68,5.39-.93,6.07-3.6,.68-2.67-.93-5.39-3.6-6.07Z"/><path class="cls-1" d="M78.94,334.05c-2.76,0-4.99,2.23-4.99,4.99s2.23,4.99,4.99,4.99,4.99-2.23,4.99-4.99-2.23-4.99-4.99-4.99Z"/><path class="cls-1" d="M98.12,334.2c-2.67-.68-5.39,.93-6.07,3.6-.68,2.67,.93,5.39,3.6,6.07,2.67,.68,5.39-.93,6.07-3.6,.68-2.67-.93-5.39-3.6-6.07Z"/><path class="cls-1" d="M78.94,350c-2.76,0-4.99,2.23-4.99,4.99,0,.65,.14,1.27,.37,1.84,.73,1.84,2.52,3.15,4.62,3.15s3.87-1.29,4.61-3.11c.24-.58,.38-1.22,.38-1.88,0-2.76-2.23-4.99-4.99-4.99Z"/><path class="cls-1" d="M98.12,350.15c-2.67-.68-5.39,.93-6.07,3.6-.28,1.11-.1,2.19,.32,3.17,.59,1.38,1.71,2.51,3.28,2.91,2.4,.61,4.75-.68,5.72-2.86,.11-.25,.28-.46,.35-.73,.68-2.67-.93-5.39-3.6-6.07Z"/><path class="cls-1" d="M63.35,317.04c-2.67-.68-5.39,.93-6.07,3.6-.68,2.67,.93,5.39,3.6,6.07,2.67,.68,5.39-.93,6.07-3.6,.68-2.67-.93-5.39-3.6-6.07Z"/><circle class="cls-1" cx="44.18" cy="339.04" r="4.99"/><path class="cls-1" d="M63.35,334.2c-2.67-.68-5.39,.93-6.07,3.6-.68,2.67,.93,5.39,3.6,6.07,2.67,.68,5.39-.93,6.07-3.6,.68-2.67-.93-5.39-3.6-6.07Z"/><path class="cls-1" d="M44.18,350c-2.76,0-4.99,2.23-4.99,4.99,0,.66,.14,1.29,.38,1.87,.74,1.83,2.52,3.12,4.61,3.12s3.88-1.3,4.62-3.14c.23-.58,.37-1.2,.37-1.86,0-2.76-2.23-4.99-4.99-4.99Z"/><path class="cls-1" d="M63.35,350.15c-2.67-.68-5.39,.93-6.07,3.6-.28,1.08-.1,2.13,.29,3.08,.58,1.42,1.71,2.58,3.31,2.99,2.45,.63,4.86-.73,5.79-3.01,.08-.21,.23-.37,.29-.59,.68-2.67-.93-5.39-3.6-6.07Z"/><path class="cls-1" d="M28.59,350.15c-2.67-.68-5.39,.93-6.07,3.6-.28,1.09-.1,2.16,.31,3.12,.58,1.4,1.71,2.55,3.29,2.95,2.43,.62,4.82-.71,5.76-2.95,.09-.22,.25-.4,.31-.64,.68-2.67-.93-5.39-3.6-6.07Z"/></g></g></svg>