<svg width="423" height="481" viewBox="0 0 423 481" fill="none" xmlns="http://www.w3.org/2000/svg">
<path opacity="0.0526316" d="M44.4417 449.598C56.5108 465.655 95.0853 492.524 152.83 471.546C225.01 445.323 252.926 375.813 317.348 339.771C364.896 313.17 492.66 273.239 566.127 317.363" stroke="white" stroke-width="3"/>
<path opacity="0.105263" d="M32.5375 415.935C42.8621 433.166 78.4166 463.92 138.037 449.093C212.563 430.558 247.592 364.347 315.429 335.237C365.497 313.751 496.735 287.394 565.187 338.956" stroke="white" stroke-width="3"/>
<path opacity="0.157895" d="M23.544 381.819C32.011 400.035 64.156 434.337 125 425.823C201.055 415.18 242.813 352.993 313.321 331.133C365.361 314.999 498.635 302.505 561.322 360.939" stroke="white" stroke-width="3"/>
<path opacity="0.210526" d="M17.4927 347.556C24.0093 366.556 52.3926 404.031 113.793 401.923C190.544 399.289 238.574 341.807 310.98 327.437C364.422 316.831 498.272 318.336 554.507 383.002" stroke="white" stroke-width="3"/>
<path opacity="0.263158" d="M14.3833 313.453C18.8781 333.031 43.1887 373.267 104.473 377.589C181.079 382.992 234.854 330.846 308.366 324.123C362.623 319.161 495.583 334.649 544.751 404.839" stroke="white" stroke-width="3"/>
<path opacity="0.315789" d="M14.1832 279.818C16.6069 299.759 36.5786 342.316 97.0757 353.02C172.697 366.401 231.628 320.161 305.44 321.159C359.919 321.896 490.531 351.197 532.093 426.142" stroke="white" stroke-width="3"/>
<path opacity="0.368421" d="M16.8269 246.953C17.153 267.037 32.5669 311.448 91.6137 328.418C165.422 349.63 228.864 309.804 302.167 318.511C356.27 324.938 483.104 367.732 516.604 446.611" stroke="white" stroke-width="3"/>
<path opacity="0.421053" d="M22.2188 215.149C20.4437 235.158 31.1309 280.937 88.0805 303.986C159.267 332.796 226.524 299.82 298.516 316.142C351.651 328.189 473.317 384.006 498.389 465.955" stroke="white" stroke-width="3"/>
<path opacity="0.473684" d="M30.2324 184.689C26.3755 204.403 32.2189 251.048 86.4473 279.924C154.233 316.017 224.568 290.252 294.459 314.01C346.044 331.545 461.209 399.774 477.577 483.895" stroke="white" stroke-width="3"/>
<path opacity="0.526316" d="M40.7137 155.84C34.8174 175.042 35.753 222.043 86.666 256.428C150.307 299.41 222.951 281.138 289.975 312.072C339.445 334.903 446.847 414.796 454.333 500.166" stroke="white" stroke-width="3"/>
<path opacity="0.578947" d="M53.4801 128.849C45.6089 147.33 41.6264 194.171 88.6663 233.69C147.466 283.089 221.622 272.51 285.046 310.28C331.857 338.157 430.32 428.839 428.841 514.524" stroke="white" stroke-width="3"/>
<path opacity="0.631579" d="M68.3248 103.948C58.565 121.505 49.7081 167.673 92.3595 211.892C145.674 267.166 220.529 264.397 279.657 308.59C323.299 341.207 411.743 441.684 401.316 526.746" stroke="white" stroke-width="3"/>
<path opacity="0.684211" d="M85.0182 81.34C73.4767 97.7804 59.8424 142.77 97.6379 191.205C144.882 251.75 219.617 256.82 273.802 306.951C313.795 343.952 391.252 453.123 371.99 536.629" stroke="white" stroke-width="3"/>
<path opacity="0.736842" d="M103.311 61.2062C90.1141 76.3501 71.8519 119.668 104.377 171.789C145.035 236.94 218.83 249.794 267.478 305.315C303.384 346.293 369.005 462.963 341.12 543.998" stroke="white" stroke-width="3"/>
<path opacity="0.789474" d="M122.935 43.7014C108.227 57.3829 85.537 98.5547 112.436 153.79C146.061 222.834 218.108 243.331 260.686 303.633C292.112 348.14 345.179 471.03 308.976 548.706" stroke="white" stroke-width="3"/>
<path opacity="0.842105" d="M143.608 28.9491C127.551 41.0183 100.682 79.5928 121.66 137.337C147.883 209.517 217.393 237.433 253.435 301.855C280.036 349.404 319.967 477.168 275.843 550.634" stroke="white" stroke-width="3"/>
<path opacity="0.894737" d="M165.037 17.0446C147.807 27.3692 117.052 62.9237 131.88 122.544C150.414 197.07 216.625 232.099 245.736 299.936C267.221 350.004 293.578 481.242 242.017 549.694" stroke="white" stroke-width="3"/>
<path opacity="0.947368" d="M186.921 8.051C168.705 16.518 134.403 48.663 142.917 109.507C153.56 185.562 215.747 227.32 237.607 297.828C253.741 349.868 266.235 483.142 207.802 545.829" stroke="white" stroke-width="3"/>
<path d="M208.952 2C189.951 8.51658 152.476 36.8999 154.584 98.3006C157.218 175.051 214.7 223.081 229.07 295.488C239.676 348.929 238.171 482.779 173.505 539.015" stroke="white" stroke-width="3"/>
</svg>
