<svg enable-background="new 9.1 40.4 74.7 19.1" viewBox="9.1 40.4 74.7 19.1" xmlns="http://www.w3.org/2000/svg"><path d="m9.1 40.5h9v9h-9z" fill="#ef5123"/><path d="m19 40.5h9v9h-9z" fill="#80bb42"/><path d="m9.1 50.5h9v9h-9z" fill="#32a0da"/><path d="m19 50.5h9v9h-9z" fill="#fcb713"/><g fill="#231f20"><path d="m42 49.5v-5.3c0-.3 0-1.4 0-2.2l-2.5 7.5h-1.2l-2.5-7.5v2.2 5.3h-1.2v-8.9h1.7l2.5 7.5 2.5-7.5h1.7v8.9z"/><path d="m44.9 41.8v-1.2h1.1v1.2zm1.1 7.7h-1.1v-6.5h1.1z"/><path d="m51.7 45.2c-.1-.9-.6-1.4-1.5-1.4-1.4 0-1.8 1.3-1.8 2.4s.3 2.5 1.8 2.5c.7 0 1.4-.5 1.5-1.5h1.1c-.1 1-.7 2.5-2.6 2.5-1.8 0-2.9-1.4-2.9-3.3 0-2 1-3.6 3.1-3.6 1.7 0 2.3 1.2 2.4 2.4z"/><path d="m55.1 49.5h-1.1v-6.5h1v1.1c.4-.8 1-1.3 1.8-1.3h.3v1.2h-.4c-1 0-1.7.8-1.7 1.7z"/><path d="m60.6 42.8c2.1 0 3 1.7 3 3.4s-.9 3.4-3 3.4-3-1.7-3-3.4.9-3.4 3-3.4zm0 5.9c1.6 0 1.9-1.6 1.9-2.5s-.3-2.5-1.9-2.5-1.9 1.6-1.9 2.5.4 2.5 1.9 2.5z"/><path d="m68.6 44.8c0-.4-.2-1.1-1.5-1.1-.3 0-1.3.1-1.3.9 0 .5.3.7 1.2.9l1.1.3c1.4.3 1.8.8 1.8 1.7 0 1.3-1.1 2.1-2.6 2.1-2.6 0-2.8-1.5-2.8-2.3h1.1c0 .5.2 1.3 1.7 1.3.8 0 1.5-.3 1.5-1 0-.5-.4-.7-1.3-.9l-1.3-.3c-.9-.2-1.5-.7-1.5-1.6 0-1.4 1.2-2.1 2.5-2.1 2.3 0 2.5 1.7 2.5 2h-1.1z"/><path d="m73.7 42.8c2.1 0 3 1.7 3 3.4s-.9 3.4-3 3.4-3-1.7-3-3.4 1-3.4 3-3.4zm0 5.9c1.6 0 1.9-1.6 1.9-2.5s-.3-2.5-1.9-2.5-1.9 1.6-1.9 2.5.4 2.5 1.9 2.5z"/><path d="m79.4 43.9v5.6h-1.1v-5.6h-.9v-.9h.9v-1.1c0-1 .6-1.4 1.7-1.4h.5v1c-.1 0-.3 0-.4 0-.5 0-.6.2-.6.8v.7h1.1v.9z"/><path d="m82.8 43.9v4.2c0 .5.4.5.7.5h.4v.9c-.4 0-.7.1-.8.1-1.1 0-1.3-.6-1.3-1.4v-4.3h-.9v-.9h.9v-1.8h1.1v1.8h1v.9z"/></g><g fill="#cea201"><path d="m37.7 56c-.2-.9-.9-1-1.4-1-.9 0-1.6.7-1.6 1.9s.4 2 1.6 2c.4 0 1.2-.2 1.4-1.3h.6c-.3 1.9-1.8 1.9-2.1 1.9-1.1 0-2.2-.7-2.2-2.6 0-1.5.9-2.6 2.3-2.6 1.3 0 1.9.8 2 1.6z"/><path d="m42.1 58.3c0 .2-.2.7-.6 1-.2.1-.4.2-1 .2-1 0-1.6-.8-1.6-1.8 0-1.1.5-2 1.7-2 1 0 1.5.8 1.5 2.1h-2.6c0 .7.3 1.2 1 1.2.6 0 .9-.4.9-.7zm-.5-1c0-.6-.3-1.1-1-1.1-.6 0-1 .5-1 1.1z"/><path d="m43.6 59.4h-.6v-3.6h.6v.6c.2-.4.6-.7 1-.7h.2v.6h-.2c-.6 0-.9.4-.9 1z"/><path d="m46.2 56.3v2.3c0 .3.2.3.4.3h.2v.5c-.2 0-.4.1-.5.1-.6 0-.7-.3-.7-.8v-2.4h-.5v-.5h.5v-1h.6v1h.6v.5z"/><path d="m47.4 55.2v-.7h.6v.7zm.6 4.2h-.6v-3.6h.6z"/><path d="m49.6 56.3v3.1h-.6v-3.1h-.5v-.5h.5v-.6c0-.5.3-.8.9-.8h.3v.6c-.1 0-.2 0-.2 0-.3 0-.4.1-.4.4v.4h.6v.5z"/><path d="m50.8 55.2v-.7h.6v.7zm.6 4.2h-.6v-3.6h.6z"/><path d="m55.3 58.3c0 .2-.2.7-.6 1-.2.1-.4.2-1 .2-1 0-1.6-.8-1.6-1.8 0-1.1.5-2 1.7-2 1 0 1.5.8 1.5 2.1h-2.6c0 .7.3 1.2 1 1.2.6 0 .9-.4.9-.7zm-.5-1c0-.6-.3-1.1-1-1.1-.6 0-1 .5-1 1.1z"/><path d="m59.1 59.4h-.6v-.5c-.3.5-.7.6-1 .6-1.2 0-1.6-1.1-1.6-2 0-1 .5-1.8 1.5-1.8.7 0 .9.4 1.1.6v-.1-1.8h.6zm-1.6-.4c.4 0 1-.3 1-1.2 0-.6-.1-1.5-1-1.5s-1 .9-1 1.3c0 .8.3 1.4 1 1.4z"/></g><path d="m62.6 59.4h-.6v-4.9h2.2c.9 0 1.5.6 1.5 1.4 0 .7-.4 1.5-1.5 1.5h-1.5v2zm0-2.6h1.3c.6 0 1-.2 1-.9 0-.6-.4-.8-1-.8h-1.3z" fill="#231f20"/><path d="m66.1 56.9c0-.9.6-1.2 1.5-1.2.3 0 1.3.1 1.3 1v2.1c0 .1.1.2.2.2h.2v.4c-.1 0-.2.1-.3.1-.5 0-.6-.3-.6-.5-.2.3-.6.6-1.3.6s-1.1-.4-1.1-1c0-.3.1-1 1.1-1.1l1-.1c.1 0 .3-.1.3-.4 0-.4-.3-.6-.8-.6-.7 0-.8.4-.8.7zm2.2.7c-.1.1-.2.1-1 .2-.3 0-.8.1-.8.6 0 .4.2.6.7.6.6 0 1.1-.4 1.1-.8z" fill="#231f20"/><path d="m70.6 59.4h-.6v-3.6h.6v.6c.2-.4.6-.7 1-.7h.2v.6h-.2c-.6 0-.9.4-.9 1z" fill="#231f20"/><path d="m73.2 56.3v2.3c0 .3.2.3.4.3h.2v.5c-.2 0-.4.1-.5.1-.6 0-.7-.3-.7-.8v-2.4h-.5v-.5h.5v-1h.6v1h.6v.5z" fill="#231f20"/><path d="m77.3 59.4h-.6v-2.2c0-.6-.2-.9-.8-.9-.3 0-.9.2-.9 1.2v1.9h-.6v-3.6h.6v.5c.1-.2.5-.6 1.1-.6s1.3.2 1.3 1.2v2.5z" fill="#231f20"/><path d="m81.2 58.3c0 .2-.2.7-.6 1-.2.1-.4.2-1 .2-1 0-1.6-.8-1.6-1.8 0-1.1.5-2 1.7-2 1 0 1.5.8 1.5 2.1h-2.6c0 .7.3 1.2 1 1.2.6 0 .9-.4.9-.7zm-.6-1c0-.6-.3-1.1-1-1.1-.6 0-1 .5-1 1.1z" fill="#231f20"/><path d="m82.7 59.4h-.6v-3.6h.6v.6c.2-.4.6-.7 1-.7h.2v.6h-.2c-.6 0-.9.4-.9 1z" fill="#231f20"/></svg>