<svg width="200" height="44" viewBox="0 0 200 44" fill="none" xmlns="http://www.w3.org/2000/svg">
<path d="M182.875 17.9621L179.563 20.8455L179.528 20.8763L183.654 28.1684C183.803 28.4326 183.761 28.7715 183.55 28.9916L182.946 29.6234L176.172 25.12L177.394 23.1786L177.106 22.9871L174.114 25.591C170.839 28.4326 167.162 30.0724 164.518 29.8743C163.45 29.7928 162.623 29.4209 162.063 28.7627C160.502 26.9535 161.414 23.3613 164.329 19.8176L164.672 20.0443C163.129 22.1881 162.722 24.2417 163.641 25.2872C164.003 25.7098 164.518 25.9498 165.171 26.0004C166.791 26.1236 169.076 25.0605 171.285 23.1544L172.11 22.4214L161.944 15.6619L162.581 15.1073C163.032 14.7155 163.663 14.59 164.228 14.7793L178.488 19.5534L178.88 19.2145L178.816 19.1727C177.752 18.4661 176.761 17.1741 177.084 16.0009L179.515 13.8857C180.242 13.2518 181.086 12.7939 182.023 12.5254C182.999 12.2437 183.829 12.2371 184.355 12.2811C185.102 12.3427 185.726 12.5562 185.946 12.8225C186.074 12.9788 186.324 13.4477 185.876 14.4381C185.421 15.4418 184.412 16.6282 182.878 17.9643L182.875 17.9621ZM13.8694 29.5397H17.9533V21.2747C17.9533 19.1572 19.083 17.9114 20.9359 17.9114C22.7889 17.9114 23.6571 19.0714 23.6571 21.2175V29.5397H27.7409V20.5219C27.7409 16.6084 25.4814 14.1146 21.8921 14.1146C20.1249 14.1146 18.7072 14.7529 17.8675 15.9415V14.4624H13.8716V29.5397H13.8694ZM37.9462 14.1124C33.1678 14.1124 29.8378 17.447 29.8378 21.9988C29.8378 26.5507 33.1678 29.8853 37.9462 29.8853C42.7247 29.8853 46.0546 26.5793 46.0546 21.9988C46.0546 17.4184 42.7247 14.1124 37.9462 14.1124ZM33.9788 21.9988C33.9788 19.6503 35.6295 17.9092 37.9462 17.9092C40.2629 17.9092 41.9136 19.6481 41.9136 21.9988C41.9136 24.3496 40.2629 26.0884 37.9462 26.0884C35.6295 26.0884 33.9788 24.3496 33.9788 21.9988ZM52.3805 29.5397V22.6393C52.3805 19.3928 54.2905 18.2328 56.6666 18.0589V14.2312C54.9301 14.2885 53.1915 15.0148 52.2947 16.3179V14.4624H48.2988V29.5397H52.3805ZM72.8284 14.4601H67.5005C66.7773 19.1 66.5158 20.1147 64.7794 25.5954C63.5353 20.5791 63.3023 19.2453 62.8693 14.4601H58.7283C59.2778 19.7956 60.3218 24.7832 61.856 29.5375H67.1268C68.6896 25.131 69.5886 21.9702 70.1666 18.7809C70.7447 21.9702 71.6437 25.131 73.2065 29.5375H78.4773C80.0115 24.781 81.0533 19.7956 81.605 14.4601H77.464C77.0288 19.2453 76.798 20.5791 75.5539 25.5954C73.8175 20.1147 73.5559 19.1 72.8328 14.4601H72.8284ZM91.0102 29.8875C94.5138 29.8875 97.2657 28.0892 98.6834 24.8712H93.9358C93.2412 25.7407 92.2851 26.1765 91.041 26.1765C89.1002 26.1765 87.711 25.1046 87.2473 23.3921H99.0329V22.2894C99.0329 17.5329 95.7909 14.1124 91.041 14.1124C86.2911 14.1124 82.9919 17.4184 82.9919 21.9988C82.9919 26.5793 86.3219 29.8853 91.0124 29.8853L91.0102 29.8875ZM87.333 20.348C87.8825 18.8117 89.1859 17.8256 91.0674 17.8256C92.9489 17.8256 94.1666 18.7831 94.6875 20.348H87.333ZM108.891 35.1062C113.322 35.1062 116.015 32.3813 116.015 27.9439V14.4601H112.019V15.882C111.208 14.8101 109.585 14.1124 107.878 14.1124C103.882 14.1124 100.928 17.2731 100.928 21.5058C100.928 25.7385 103.91 28.8992 107.878 28.8992C109.528 28.8992 111.12 28.2323 111.931 27.2176V27.8273C111.931 30.0592 110.83 31.3358 108.862 31.3358C107.618 31.3358 106.634 30.8141 106.286 29.9733H101.479C102.262 33.1055 105.128 35.1062 108.891 35.1062ZM108.601 25.1024C106.517 25.1024 105.069 23.6518 105.069 21.5058C105.069 19.3597 106.489 17.9092 108.601 17.9092C110.713 17.9092 112.162 19.3884 112.162 21.5058C112.162 23.6232 110.713 25.1024 108.601 25.1024ZM126.321 19.0714H130.838C131.157 18.202 131.968 17.7089 133.097 17.7089C134.284 17.7089 135.008 18.2306 135.008 19.0428C135.008 19.7097 134.515 20.0861 133.502 20.2028L131.128 20.4933C127.682 20.8983 125.945 22.4368 125.945 25.1046C125.945 27.9748 128 29.8897 131.157 29.8897C132.836 29.8897 134.313 29.1942 135.095 28.0628V29.5419H139.091V19.5953C139.091 16.0581 136.977 14.1146 133.069 14.1146C129.594 14.1146 127.249 15.8534 126.323 19.0736L126.321 19.0714ZM130.027 24.7832C130.027 23.9996 130.548 23.5374 131.794 23.3635L133.473 23.1324C134.051 23.0443 134.544 22.9299 135.008 22.8132V23.161C135.008 25.0737 133.906 26.2645 132.025 26.2645C130.838 26.2645 130.027 25.6856 130.027 24.7854V24.7832ZM142.151 29.5397H146.235V21.2747C146.235 19.1572 147.365 17.9114 149.218 17.9114C151.07 17.9114 151.939 19.0714 151.939 21.2175V29.5397H156.023V20.5219C156.023 16.6084 153.763 14.1146 150.174 14.1146C148.406 14.1146 146.989 14.7529 146.149 15.9415V14.4624H142.153V29.5397H142.151ZM118.67 10.8658C118.67 9.32944 119.8 8.28613 121.246 8.28613C122.692 8.28613 123.822 9.32944 123.822 10.8658C123.822 12.4021 122.692 13.4455 121.246 13.4455C119.8 13.4455 118.67 12.4021 118.67 10.8658ZM123.275 14.4601V29.5375H119.191V14.4601H123.275Z" fill="#b12a0b"/>
</svg>
