<?xml version="1.0" encoding="utf-8"?>
<svg xmlns="http://www.w3.org/2000/svg" height="48" viewBox="0 0 56 24" width="76">
    <g fill="none" fill-rule="evenodd">
        <path d="M27.995 2C22.337 2 17.75 6.587 17.75 12.245c0 .924.125 1.818.354 2.67l.056.109c.47.792 2.226 2.546 8.163 1.07 3.656-.909 7.304-3.415 9.659-5.803.045.203.081.407.112.613-2.051 2.718-5.586 5.775-9.757 7.042-2.832.86-4.823 1.023-6.217.85a10.222 10.222 0 0 0 7.875 3.694c5.658 0 10.245-4.587 10.245-10.245C38.24 6.587 33.653 2 27.995 2" fill="#ED3124"/>
        <path d="M16.2 12.196c0-3.725 1.667-7.042 4.264-9.196h-7.645v6.853L8.838 3H2v18.392h6.78v-6.853l3.98 6.853h7.703c-2.597-2.154-4.263-5.471-4.263-9.196zM54 3L43.196 21.392H35.52c2.597-2.154 4.263-5.471 4.263-9.196 0-3.725-1.666-7.042-4.263-9.196h7.645v6.853L47.146 3H54z" fill="#5F6369"/>
    </g>
</svg>