<?xml version="1.0" encoding="UTF-8"?>
<svg id="Layer_1" data-name="Layer 1" xmlns="http://www.w3.org/2000/svg" version="1.1" viewBox="0 0 314.2 58">
  <defs>
    <style>
      .cls-1 {
        fill: #003087;
      }

      .cls-1, .cls-2 {
        stroke-width: 0px;
      }

      .cls-2 {
        fill: #6cace4;
      }
    </style>
  </defs>
  <path class="cls-2" d="M36.2,7.2c0,4-3.2,7.2-7.2,7.2s-7.2-3.2-7.2-7.2S25,0,29,0s7.2,3.2,7.2,7.2Z"/>
  <path class="cls-2" d="M36.2,29c0,3.9-3.2,7.2-7.2,7.2s-7.2-3.2-7.2-7.2,3.2-7.2,7.2-7.2,7.2,3.2,7.2,7.2Z"/>
  <path class="cls-2" d="M14.3,29c0,3.9-3.2,7.2-7.2,7.2s-7.2-3.2-7.2-7.2,3.2-7.2,7.2-7.2,7.2,3.2,7.2,7.2Z"/>
  <path class="cls-1" d="M58,29c0,3.9-3.2,7.2-7.2,7.2s-7.2-3.2-7.2-7.2,3.2-7.2,7.2-7.2,7.2,3.2,7.2,7.2Z"/>
  <path class="cls-1" d="M36.2,50.8c0,3.9-3.2,7.2-7.2,7.2s-7.2-3.2-7.2-7.2,3.2-7.2,7.2-7.2,7.2,3.2,7.2,7.2Z"/>
  <path class="cls-1" d="M83.7,21.4c-2.1-.9-3.7-1.4-5-1.4s-2.8.7-2.8,1.8.5,1.3,1.8,2.1c3,1.6,4.9,2.8,5.8,3.7.8.8,1.3,2.1,1.3,3.5,0,3.5-2.5,5.5-6.8,5.5s-1.2,0-1.7-.1c-1.4-.2-2-.4-4-1.3l-1.3-.6,1.6-3.4c1.4.8,2,1.1,2.8,1.3,1,.4,2,.6,2.8.6,1.7,0,2.8-.8,2.8-1.9s-.4-1.4-1.7-2.1l-3-1.7c-3.4-2-4.5-3.3-4.5-5.4s.3-2,.8-2.7c.3-.5.8-1,1.4-1.4,1.4-1,2.6-1.3,4.9-1.3s2.4.1,3.6.5c.9.3,1.5.5,2.8,1.1l-1.5,3.3Z"/>
  <path class="cls-1" d="M95.7,27.8v8.3h-3.7v-8.3l-5.9-11.1h4l3.9,7.6,4.1-7.6h4l-6.5,11.1Z"/>
  <path class="cls-1" d="M114.8,36.1l-6.5-9.2v9.2h-3.7v-19.4h3.7v9l6.1-9h4.3l-6.7,9.4,7,9.9h-4.2Z"/>
  <path class="cls-1" d="M121.6,36.1v-19.4h11.8v3.1h-8.1v4.8h6.6v3.1h-6.6v5.2h8.5v3.1h-12.2Z"/>
  <path class="cls-1" d="M151,36.1v-8.3h-9.9v8.3h-3.7v-19.4h3.7v7.7h9.9v-7.7h3.7v19.4h-3.7Z"/>
  <path class="cls-1" d="M173.1,35.1c-1.4,1-3.1,1.4-5.5,1.4s-4-.4-5.5-1.4c-2-1.4-2.6-3-2.6-6.5v-11.8h3.7v12c0,2.9,1.5,4.3,4.6,4.3s4.3-1.5,4.3-4.3v-12h3.7v11.8c0,3.6-.6,5.1-2.7,6.5Z"/>
  <path class="cls-1" d="M191.3,21.4c-2.1-.9-3.7-1.4-5-1.4s-2.8.7-2.8,1.8.5,1.3,1.8,2.1c3,1.6,4.9,2.8,5.8,3.7.8.8,1.3,2.1,1.3,3.5,0,3.5-2.5,5.5-6.8,5.5s-1.2,0-1.7-.1c-1.4-.2-2-.4-4-1.3l-1.3-.6,1.6-3.4c1.4.8,2,1.1,2.8,1.3,1,.4,2,.6,2.8.6,1.7,0,2.8-.8,2.8-1.9s-.4-1.4-1.7-2.1l-3-1.7c-3.4-2-4.5-3.3-4.5-5.4s.3-2,.8-2.7c.3-.5.8-1,1.4-1.4,1.4-1,2.6-1.3,4.9-1.3s2.4.1,3.6.5c.9.3,1.5.5,2.8,1.1l-1.5,3.3Z"/>
  <path class="cls-1" d="M202.5,19.9h-2.6v6.5h.9c.4,0,.7,0,.8,0,2.9,0,4.1-1.1,4.1-3.4s-1-3.1-3.3-3.1ZM207.4,27.9c-1.4,1.2-3.1,1.7-5.7,1.7s-1.1,0-1.8,0v6.6h-3.7v-19.4h6.6c2.5,0,3.9.4,5.1,1.6,1.1,1.1,1.6,2.6,1.6,4.3s-.8,4-2.2,5.2Z"/>
  <path class="cls-1" d="M218.3,21.2l-2.2,7h4.5l-2.3-7ZM223.1,36.1l-1.5-4.8h-6.5l-1.6,4.8h-3.9l7-19.4h3.3l7,19.4h-3.9Z"/>
  <path class="cls-1" d="M235.8,19.9h-2.4v5.3h2.4c2.3,0,3.4-.8,3.4-2.8s-1-2.6-3.4-2.6ZM239.7,36.1l-4.4-7.7h-1.8v7.7h-3.7v-19.4h6.5c2.8,0,4.1.4,5.3,1.4,1.1,1,1.6,2.4,1.6,4.2s-.4,2.7-1.1,3.6c-.7.9-1.4,1.3-3,1.8l4.8,8.3h-4Z"/>
  <path class="cls-1" d="M253.3,19.9v16.2h-3.7v-16.2h-5.8v-3.1h15.3v3.1h-5.8Z"/>
  <path class="cls-1" d="M275,36.3l-8.3-12.5-.6-1.2c-.1-.2-.2-.4-.3-.7v14.2h-3.5v-19.4h4.3l7.8,12.3c.6.9.8,1.5,1,2.1v-14.4h3.5v19.5h-3.9Z"/>
  <path class="cls-1" d="M284.3,36.1v-19.4h11.8v3.1h-8.1v4.8h6.6v3.1h-6.6v5.2h8.5v3.1h-12.2Z"/>
  <path class="cls-1" d="M306.2,19.9h-2.4v5.3h2.4c2.3,0,3.4-.8,3.4-2.8s-1-2.6-3.4-2.6ZM310.1,36.1l-4.4-7.7h-1.8v7.7h-3.7v-19.4h6.5c2.8,0,4.1.4,5.3,1.4,1.1,1,1.6,2.4,1.6,4.2s-.4,2.7-1.1,3.6c-.7.9-1.4,1.3-3,1.8l4.8,8.3h-4Z"/>
</svg>